<svg width="150" height="62" viewBox="0 0 150 62" xmlns="http://www.w3.org/2000/svg"><defs><linearGradient x1="62.387%" y1="89.763%" x2="41.564%" y2="22.917%" id="a"><stop stop-color="#00BCBA" offset="0%"/><stop stop-color="#2674DD" offset="100%"/></linearGradient><linearGradient x1="110.832%" y1="176.791%" x2="18.007%" y2="-72.008%" id="b"><stop stop-color="#00BCBA" offset="0%"/><stop stop-color="#2674DD" offset="100%"/></linearGradient><linearGradient x1="82.553%" y1="152.323%" x2="3.4%" y2="-96.476%" id="c"><stop stop-color="#00BCBA" offset="0%"/><stop stop-color="#2674DD" offset="100%"/></linearGradient><linearGradient x1="78.783%" y1="123.835%" x2="-21.518%" y2="-124.964%" id="d"><stop stop-color="#00BCBA" offset="0%"/><stop stop-color="#2674DD" offset="100%"/></linearGradient><linearGradient x1="48.54%" y1="63.698%" x2="-40.871%" y2="-185.102%" id="e"><stop stop-color="#00BCBA" offset="0%"/><stop stop-color="#2674DD" offset="100%"/></linearGradient><linearGradient x1="29.943%" y1="40.148%" x2="-79.146%" y2="-208.652%" id="f"><stop stop-color="#00BCBA" offset="0%"/><stop stop-color="#2674DD" offset="100%"/></linearGradient><linearGradient x1="39.675%" y1="13.474%" x2="-28.216%" y2="-224.539%" id="g"><stop stop-color="#00BCBA" offset="0%"/><stop stop-color="#2674DD" offset="100%"/></linearGradient><linearGradient x1="31.289%" y1="-15.704%" x2="-61.705%" y2="-253.717%" id="h"><stop stop-color="#00BCBA" offset="0%"/><stop stop-color="#2674DD" offset="100%"/></linearGradient><linearGradient x1="18.5%" y1="-45.404%" x2="-59.09%" y2="-294.204%" id="i"><stop stop-color="#00BCBA" offset="0%"/><stop stop-color="#2674DD" offset="100%"/></linearGradient></defs><g fill="none" fill-rule="evenodd"><path d="M30.002 0L0 11.799V50.2L30.002 62l30.003-11.799V11.8L30.002 0zm-7.024 35.442v-8.884l7.024-2.836 7.025 2.836v8.884l-7.025 2.842-7.024-2.842z" fill="url(#a)"/><path fill-opacity=".18" fill="#000" d="M30.002 0l30.003 11.799-30.003 11.923L0 11.799z"/><path fill-opacity=".25" fill="#FFF" d="M30.002 38.284L60.005 50.2 30.002 62 0 50.201z"/><path fill="url(#b)" d="M3.994 4.598H.072V.073h13.317v4.525H9.466v11.939H3.994z" transform="translate(69.532 11.963)"/><path fill="url(#c)" d="M15.447.073h5.448v5.873h4.697V.073h5.472v16.464h-5.472v-6.09h-4.697v6.09h-5.448z" transform="translate(69.532 11.963)"/><path fill="url(#d)" d="M34.357.073h12.082v4.525h-6.804V6.09h6.538v4.333h-6.538v1.588h7.046v4.526H34.357z" transform="translate(69.532 11.963)"/><path d="M.072 21.093v16.464h6.707c3.268 0 7.118-1.035 7.118-4.742 0-2.167-1.113-3.322-3.172-3.851v-.12c1.453-.53 2.494-1.806 2.494-3.467 0-3.346-3.172-4.284-5.908-4.284H.071zm5.133 4.092h1.404c1.041 0 1.332.65 1.332 1.179 0 .481-.29 1.18-1.38 1.18H5.205v-2.36zm0 5.704h1.38c1.283 0 1.913.265 1.913 1.228 0 .77-.581 1.227-1.695 1.227H5.205V30.89z" fill="url(#e)" transform="translate(69.532 11.963)"/><path fill="url(#f)" d="M16.39 21.093v16.464h11.333V32.91h-5.884V21.093z" transform="translate(69.532 11.963)"/><path d="M28.158 29.3c0 5.248 3.923 8.642 9.104 8.642 5.545 0 9.105-3.394 9.105-8.641 0-5.392-3.947-8.57-9.105-8.57-5.181 0-9.104 3.178-9.104 8.57m5.739 0c0-2.335 1.332-3.804 3.365-3.804 2.131 0 3.39 1.565 3.39 3.804 0 2.382-1.307 3.875-3.39 3.875-2.106 0-3.365-1.589-3.365-3.875" fill="url(#g)" transform="translate(69.532 11.963)"/><path d="M48.061 29.373c0 5.32 3.342 8.569 8.668 8.569 1.599 0 2.93-.145 4.625-.698v-4.742c-.605.36-1.622.626-3.365.626-2.543 0-4.19-1.084-4.19-3.78 0-1.853.92-3.85 3.778-3.85 1.695 0 2.712.336 3.777.794v-4.766c-.557-.313-2.179-.794-4.213-.794-5.569 0-9.08 3.658-9.08 8.64" fill="url(#h)" transform="translate(69.532 11.963)"/><path fill="url(#i)" d="M73.267 21.093l-3.753 7.413v-7.413h-5.448v16.464h5.448v-7.751h.363l3.923 7.75h6.198l-5.206-9.218 4.65-7.245z" transform="translate(69.532 11.963)"/></g></svg>